<svg width="700" height="394" viewBox="0 0 700 394" fill="none" xmlns="http://www.w3.org/2000/svg">
<path d="M572.996 346.852L554.654 300.853C551.849 292.598 532.492 278.158 544.863 304.288L575.152 371.461L578.709 375.666L572.996 346.852Z" fill="#A6A6A6" stroke="#A6A6A6" stroke-width="0.938596"/>
<path d="M104.578 348.155L122.92 302.156C125.725 293.901 145.082 279.461 132.711 305.591L102.422 372.764L98.865 376.97L104.578 348.155Z" fill="#A6A6A6" stroke="#A6A6A6" stroke-width="0.938596"/>
<path d="M102.422 372.764L114.227 278.039C116.212 261.268 106.364 246.7 103.713 274.57L95.5187 358.787L95.1624 378.93L102.422 372.764Z" fill="#0F0E0C" stroke="#0F0E0C" stroke-width="0.938596"/>
<path d="M129.745 298.838L98.865 376.97" stroke="#0F0E0C" stroke-width="2.48321"/>
<path d="M96.4196 387.261L102.422 372.764L90.4926 283.736C90.4926 283.736 89.576 269.586 88.3549 264.116C86.867 257.451 82.75 255.28 81.7638 257.441C78.1884 265.275 80.2471 284.479 80.2471 284.479L90.3756 384.501L96.4196 387.261Z" fill="#A6A6A6" stroke="#A6A6A6" stroke-width="0.938596"/>
<path d="M84.8474 268.21L95.8852 390.643" stroke="#0F0E0C" stroke-width="2.48321"/>
<path d="M575.152 371.461L563.347 276.736C561.362 259.965 571.21 245.397 573.862 273.267L582.056 357.484L582.412 377.627L575.152 371.461Z" fill="#0F0E0C" stroke="#0F0E0C" stroke-width="0.938596"/>
<path d="M581.155 385.958L575.152 371.461L587.082 282.433C587.082 282.433 587.998 268.283 589.22 262.813C590.707 256.148 594.824 253.977 595.811 256.138C599.386 263.972 597.327 283.176 597.327 283.176L587.199 383.198L581.155 385.958Z" fill="#0F0E0C" stroke="#0F0E0C" stroke-width="0.938596"/>
<path d="M547.829 297.535L578.709 375.666" stroke="#0F0E0C" stroke-width="2.48321"/>
<path d="M592.727 266.907L581.689 389.34" stroke="white" stroke-width="2.48321"/>
<path d="M593.422 390.093C593.422 390.093 581.674 359.946 549.934 358.303C518.193 356.66 514.596 377.492 491.577 360.07C468.558 342.647 436.633 271.977 352.063 284.426C267.493 296.875 241.571 381.991 241.571 381.991L238.897 389.505" fill="white"/>
<path d="M593.422 390.093C593.422 390.093 581.674 359.946 549.934 358.303C518.193 356.66 514.596 377.492 491.577 360.07C468.558 342.647 436.633 271.977 352.063 284.426C267.493 296.875 241.571 381.991 241.571 381.991L238.897 389.505" stroke="white" stroke-width="1.07903"/>
<path d="M86.5977 390.036C86.5977 390.036 95.9407 368.768 121.183 367.65C146.426 366.532 152.545 391.063 170.852 379.208C189.159 367.353 211.148 309.091 278.406 317.562C345.663 326.033 366.279 383.95 366.279 383.95L368.406 389.063" fill="white"/>
<path d="M86.5977 390.036C86.5977 390.036 95.9407 368.768 121.183 367.65C146.426 366.532 152.545 391.063 170.852 379.208C189.159 367.353 211.148 309.091 278.406 317.562C345.663 326.033 366.279 383.95 366.279 383.95L368.406 389.063" stroke="white" stroke-width="0.793701"/>
<path d="M333.566 151.941L334.333 151.837C332.741 139.889 328.145 131.528 321.394 128.296C316.69 126.044 311.285 126.511 306.173 129.612L306.577 130.277C311.456 127.314 316.6 126.863 321.057 128.998C327.565 132.11 332.007 140.257 333.566 151.941Z" fill="black"/>
<path d="M333.566 151.941L334.333 151.837C332.741 139.889 328.145 131.528 321.394 128.296C316.69 126.044 311.285 126.511 306.173 129.612L306.577 130.277C311.456 127.314 316.6 126.863 321.057 128.998C327.565 132.11 332.007 140.257 333.566 151.941" stroke="#0F0E0C" stroke-width="1.2487"/>
<path d="M205.403 169.303H306.187V97.1826H205.403V169.303Z" fill="#827E7E"/>
<path d="M205.403 169.303H306.187V97.1826H205.403V169.303" stroke="white" stroke-width="1.2487"/>
<path d="M305.799 168.916H205.79V97.5696H305.799V168.916ZM205.013 169.693H306.577V96.7957H205.013V169.693Z" fill="#827E7E"/>
<path d="M205.013 169.693H306.577V96.7957H205.013V169.693M305.799 168.916H205.79V97.5696H305.799V168.916Z" stroke="#827E7E" stroke-width="1.24724"/>
<path d="M254.036 125.481L306.374 97.5215L306.005 96.841L254.047 124.592L205.596 96.8437L205.211 97.5189L254.036 125.481Z" fill="#827E7E"/>
<path d="M254.036 125.481L306.374 97.5215L306.005 96.841L254.047 124.592L205.596 96.8437L205.211 97.5189L254.036 125.481" stroke="white" stroke-width="1.24724"/>
<path d="M216.591 52.4346C213.597 56.9606 215.555 68.7988 215.555 68.7988L223.604 69.3032L224.007 67.1762C224.007 67.1762 227.842 68.3638 229.995 67.1762C230.361 66.9734 237.692 64.8145 231.181 44.6314C231.05 44.2311 216.823 52.085 216.591 52.4346Z" fill="#A6A6A6"/>
<path d="M211.631 74.3443L216.294 60.6888L215.56 60.4379L210.9 74.0961L211.631 74.3443Z" fill="black"/>
<path d="M250.185 76.8768L249.088 62.2046L260.005 64.0406C260.005 64.0406 261.565 69.3726 262.724 75.7773" fill="#A6A6A6"/>
<path d="M225.516 73.8425C225.535 73.7758 225.516 73.8425 225.821 73.96L230.452 75.7693C229.242 78.0483 223.476 90.1267 223.476 90.1267C223.476 90.1267 215.638 83.8659 214.204 82.8091C213.531 82.3154 210.641 79.3145 210.014 78.7621" fill="#0F0E0C"/>
<path d="M214.796 66.8026L223.911 67.8461L223.171 72.9272L225.516 73.8425C225.471 73.8639 225.431 73.9039 225.415 73.9706C224.632 76.8528 222.96 78.8009 220.103 79.759C217.75 80.5462 215.098 80.9705 212.598 80.5836C210.648 78.7822 208.894 76.7541 207.251 74.6858C207.211 74.6405 207.166 74.6138 207.12 74.6058C206.261 73.7331 205.433 72.8258 204.671 71.8677C209.198 69.039 214.796 66.8026 214.796 66.8026Z" fill="#A6A6A6"/>
<path d="M200.74 74.8513C201.672 73.9199 202.92 72.9939 204.282 72.1213C205.107 73.1674 206.015 74.1521 206.963 75.1021C206.984 75.1235 207.008 75.1368 207.03 75.1475C209.265 77.9469 211.698 80.6636 214.556 82.8386C216.073 83.9968 217.587 85.1603 219.096 86.3265C220.458 87.3833 221.609 88.6803 223.102 89.5609C223.198 89.6196 223.353 89.6356 223.425 89.5182C224.707 87.4207 225.492 85.0936 226.528 82.8733C227.674 80.4208 229.186 78.1578 230.452 75.7693L250.695 83.6685L250.185 76.8768C262.724 75.7773 250.185 76.8768 262.724 75.7773C264.265 84.5092 265.144 95.9043 260.959 101.842C256.162 108.644 230.024 95.2585 230.024 95.2585L223.601 118.07C223.601 118.07 187.368 124.091 182.63 116.912C180.619 113.862 189.414 86.145 200.74 74.8513Z" fill="#0F0E0C"/>
<path d="M243.997 50.7373H251.414V59.0075H243.997C242.945 59.0075 242.09 57.1715 242.09 54.8871C242.09 52.6054 242.945 50.7373 243.997 50.7373Z" fill="white"/>
<path d="M251.026 58.6205H243.997C243.279 58.6205 242.478 57.0887 242.478 54.8871C242.478 52.7362 243.282 51.127 243.997 51.127H251.026V58.6205ZM243.997 59.3945H251.804V50.3504H243.997C242.691 50.3504 241.703 52.3038 241.703 54.8871C241.703 57.4597 242.691 59.3945 243.997 59.3945Z" fill="black"/>
<path d="M252.64 47.5483L265.777 46.7824V62.9624L252.64 62.1965C250.775 62.1965 249.264 58.9408 249.264 54.9004C249.264 50.8601 250.775 47.5483 252.64 47.5483Z" fill="white"/>
<path d="M265.389 47.196V62.5541L252.664 61.8123C251.197 61.8123 249.651 59.0342 249.651 54.9004C249.651 51.127 251.018 47.9379 252.64 47.9379C252.664 47.9379 265.389 47.196 265.389 47.196ZM266.164 63.3761V46.3714L252.629 47.1613C250.522 47.1747 248.877 50.5692 248.877 54.9004C248.877 59.2103 250.527 62.5862 252.64 62.5862L266.164 63.3761Z" fill="black"/>
<path d="M268.923 44.482C266.228 44.482 264.043 49.2642 264.043 55.1032C264.043 60.9423 266.228 65.6498 268.923 65.6498L291.712 67.1816V42.5659L268.923 44.482Z" fill="#827E7E"/>
<path d="M285.919 54.8737C285.919 61.8363 288.523 67.4805 291.736 67.4805C294.948 67.4805 297.558 61.8363 297.558 54.8737C297.558 47.9112 294.948 42.2697 291.736 42.2697C288.523 42.2697 285.919 47.9112 285.919 54.8737Z" fill="#0F0E0C" stroke="#827E7E" stroke-width="1.2487"/>
<path d="M229.421 50.9722H236.837V59.2397H229.421C228.368 59.2397 227.514 57.4036 227.514 55.1219C227.514 52.8402 228.368 50.9722 229.421 50.9722Z" fill="#827E7E"/>
<path d="M238.066 47.7831L251.2 47.0172V63.2L238.066 62.434C236.199 62.434 234.687 59.1729 234.687 55.1326C234.687 51.0923 236.199 47.7831 238.066 47.7831Z" fill="#827E7E"/>
<path d="M254.346 44.7142C251.651 44.7142 249.467 49.4991 249.467 55.3354C249.467 61.1744 251.651 65.8819 254.346 65.8819L277.135 67.4164V42.8007L254.346 44.7142Z" fill="#827E7E" stroke="#827E7E" stroke-width="1.2487"/>
<path d="M271.34 55.1059C271.34 62.0684 273.946 67.7126 277.159 67.7126C280.375 67.7126 282.979 62.0684 282.979 55.1059C282.979 48.1434 280.375 42.5019 277.159 42.5019C273.946 42.5019 271.34 48.1434 271.34 55.1059Z" fill="#0F0E0C" stroke="#0F0E0C" stroke-width="1.2487"/>
<path d="M228.547 78.5047L237.072 60.8142C237.072 60.8142 235.44 53.6141 236.012 51.5566C236.591 49.4724 238.926 45.9044 240.91 45.2532C241.514 45.0531 243.434 45.5815 243.434 45.5815L244.467 45.2906L245.853 45.6856L247.365 45.4134C247.365 45.4134 248.356 46.1766 248.393 46.1472C250.773 44.2632 251.187 46.8091 251.187 46.8091C251.187 46.8091 247.571 48.533 246.462 52.9256C245.186 57.9854 247.742 60.9209 247.653 63.4775C247.536 67.0268 244.913 76.5459 244.913 76.5459C244.913 76.5459 244.238 79.799 242.881 84.2823" fill="#A6A6A6"/>
<path d="M201.119 82.1821C206.565 80.266 223.476 90.1267 223.476 90.1267L228.713 78.8383C223.476 90.1267 228.713 78.8383 242.734 84.7627C240.034 93.5479 234.826 106.616 227.081 109.619C219.005 112.746 194.964 95.0957 194.742 94.9303C193.262 93.8201 196.128 83.9354 201.119 82.1821Z" fill="#0F0E0C"/>
<path d="M232.345 42.5179C232.796 48.3702 219.403 53.9691 219.403 53.9691C219.403 53.9691 216.099 51.4499 215.808 55.3861C215.659 57.449 218.802 59.5279 218.802 59.5279C218.802 59.5279 217.442 68.9352 211.207 78.7102C209.782 80.9431 205.227 74.7099 201.493 75.5105C199.114 76.0175 196.221 80.4955 196.221 80.4955C196.221 80.4955 202.289 49.9768 209.735 42.4138C219.627 32.3663 231.888 36.6335 232.345 42.5179Z" fill="#0F0E0C"/>
<path d="M225.345 53.8919C225.345 54.3548 225.722 54.7376 226.192 54.7376C226.655 54.7376 227.038 54.3548 227.038 53.8919C227.038 53.423 226.655 53.0431 226.192 53.0431C225.722 53.0431 225.345 53.423 225.345 53.8919Z" fill="black"/>
<path d="M229.057 63.1946C229.903 63.1227 230.851 62.3113 231.079 61.5929L228.998 61.2463L226.612 60.9095C226.593 62.089 227.965 63.0986 228.879 63.1839C228.94 63.1893 229.001 63.1946 229.057 63.1946" fill="white"/>
<path d="M224.579 116.795L226.184 110.035L225.428 109.856L223.826 116.616L224.579 116.795Z" fill="black"/>
<path d="M218.231 50.6546C218.482 50.8814 218.917 50.8174 219.211 50.5132C219.504 50.2089 219.544 49.7793 219.299 49.5524C219.05 49.3256 218.615 49.3897 218.319 49.6939C218.025 49.9954 217.987 50.4251 218.231 50.6546ZM216.091 47.156C216.919 47.3855 218.26 47.8472 219.074 48.5944C220.322 49.7419 220.383 50.6039 219.876 51.1296C219.366 51.6527 218.476 51.642 217.232 50.4972C216.417 49.7446 215.867 48.4716 215.584 47.6791C215.461 47.3348 215.733 47.0546 216.091 47.156Z" fill="white"/>
<path d="M156.84 188.448H257.628V116.328H156.84V188.448Z" fill="#A6A6A6" stroke="#827E7E" stroke-width="1.2487"/>
<path d="M257.238 188.061H157.227V116.714H257.238V188.061ZM156.45 188.838H258.016V115.941H156.45V188.838Z" fill="#A6A6A6" stroke="#A6A6A6" stroke-width="1.2487"/>
<path d="M205.473 144.623L257.81 116.666L257.442 115.986L205.483 143.737L157.032 115.989L156.647 116.664L205.473 144.623Z" fill="white"/>
<path d="M205.473 144.623L257.81 116.666L257.442 115.986L205.483 143.737L157.032 115.989L156.647 116.664L205.473 144.623" stroke="white" stroke-width="1.70079"/>
<path d="M174.148 188.109C174.148 197.505 166.531 205.119 157.136 205.119C147.738 205.119 140.121 197.505 140.121 188.109C140.121 178.715 147.738 171.099 157.136 171.099C166.531 171.099 174.148 178.715 174.148 188.109Z" fill="black"/>
<path d="M197.025 306.101H429.583V152.523H197.025V306.101Z" fill="white"/>
<path d="M206.61 306.107H421.894V159.829H206.61V306.107" stroke="#0F0E0C" stroke-width="1.2487"/>
<path d="M222.992 196.07H311.176V177.907H222.992V196.07Z" fill="#A6A6A6"/>
<path d="M222.992 216.205H311.176V215.428H222.992V216.205Z" fill="black" stroke="#0F0E0C" stroke-width="1.2487"/>
<path d="M194.048 306.48H199.141V151.554H194.048V306.48Z" fill="black"/>
<path d="M148.381 317.435L148.411 306.192L137.679 306.164L137.65 318.857L148.411 318.927" fill="#0F0E0C"/>
<path d="M148.381 317.435L148.411 306.192L137.679 306.164L137.65 318.857L148.411 318.927" stroke="#0F0E0C" stroke-width="1.2487"/>
<path d="M429.078 305.805H199.392V152.72H429.078V305.805ZM198.614 306.581H429.853V151.943H198.614V306.581Z" fill="#0F0E0C"/>
<path d="M198.614 306.581H429.853V151.943H198.614V306.581M429.078 305.805H199.392V152.72H429.078V305.805Z" stroke="#0F0E0C" stroke-width="1.2487" stroke-linejoin="round"/>
<path d="M148.411 318.926H480.056V306.192H148.411V318.926Z" fill="#827E7E" stroke="#0F0E0C" stroke-width="1.2487"/>
<path d="M437.792 261.454C443.836 261.454 449.634 263.832 453.939 268.073C453.939 268.073 501.771 314.822 502.028 315.094C493.166 324.743 480.042 336.804 469.512 345.205C469.296 344.97 459.564 334.482 458.106 332.913L370.676 261.001L437.792 261.454" fill="#0F0E0C"/>
<path d="M364.959 189.917C363.189 190.741 360.213 191.26 356.933 191.187L357.012 191.192L357.988 196.678C359.09 196.172 359.73 197.149 360.858 196.707C362.493 202.457 363.427 203 358.685 203.381C357.192 203.502 351.219 205.195 349.726 205.14C344.151 203.991 344.017 204.044 343.352 199.926L344.902 197.506L344.573 189.25C344.573 189.25 339.918 186.953 339.097 185.578C337.937 183.643 339.803 178.215 339.803 178.215C338.594 172.157 340.558 166.262 345.259 163.503C351.556 159.803 355.114 162.815 360.556 170.807C361.807 172.645 366.58 173.832 367.436 175.13C368.257 176.377 365.163 178.28 365.17 178.298C368.458 184.3 370.034 187.543 364.959 189.918" fill="#A6A6A6"/>
<path d="M382.718 248.568C384.598 252.685 386.611 257.794 389.094 262.256L411.984 262.299L417.618 262.315C426.477 262.456 431.762 267.859 435.058 276.087L458.106 332.913C462.44 343.793 465.671 351.906 465.714 352.01C453.985 356.993 437.473 364.059 424.495 368.278C424.367 367.95 399.14 305.676 399.14 305.676L385.542 305.503C367.096 305.503 349.43 298.204 341.814 282.761C340.865 280.84 339.466 277.192 338.146 273.571L335.246 263.326C338.029 263.072 340.831 262.951 343.592 262.484C350.707 261.281 357.726 259.459 364.632 257.385C367.984 256.379 380.263 250.716 382.718 248.568V248.568Z" fill="#827E7E"/>
<path d="M330.637 211.39C331.841 207.201 333.922 204.374 338.967 201.943L343.352 199.926C343.71 200.636 344.174 201.268 344.703 201.749C345.368 202.349 352.771 203.998 354.053 203.825C357.928 203.304 362.14 201.191 360.858 196.707C364.807 194.577 369.511 191.044 370.641 186.673L393.075 199.109C387.378 206.505 380.479 213.314 373.255 219.442L373.095 219.578C375.197 228.913 378.065 238.152 382.544 248.151C382.509 248.157 382.755 248.536 382.718 248.567C379.449 251.436 375.387 253.462 371.258 254.876C366.907 256.365 363.968 257.617 359.532 258.818C355.112 260.008 349.772 261.822 345.274 262.687C342.144 263.29 338.408 263.021 335.246 263.326L330.135 245.282L324.305 243.516C327.857 226.583 329.042 216.947 330.637 211.39Z" fill="#0F0E0C"/>
<path d="M411.943 97.4121L398.979 125.174L388.118 119.735L383.196 117.107C382.947 116.522 375.078 115.585 375.078 115.585C375.078 115.585 379.668 121.144 379.481 120.651C379.435 120.531 365.668 108.519 365.668 108.519L347.179 98.7091L411.943 97.4121Z" fill="black"/>
<path d="M411.943 97.2894L382.963 116.829L379.839 121.281L376.976 123.52L365.668 108.399L411.943 97.2894Z" fill="white"/>
<path d="M380.774 93.6022C377.539 93.6022 374.211 88.8026 373.115 84.1274C372.015 79.4241 373.276 76.0632 376.487 75.1281C380.627 73.9262 383.471 79.6287 383.589 79.8735L383.065 80.1284C383.037 80.0742 380.318 74.6245 376.649 75.6879C372.382 76.928 373.302 82.3596 373.685 83.9929C374.782 88.6762 378.242 93.5159 381.234 92.9781C385.448 92.2197 384.657 81.7797 384.163 77.5741C384.017 76.6009 383.944 75.9528 383.928 75.8224C383.912 75.6659 384.025 75.5234 384.179 75.5013C384.338 75.4813 384.483 75.5876 384.509 75.7461C384.529 75.8705 384.629 76.5066 384.746 77.4677C385.414 81.8219 387.601 92.9741 392.408 92.9741C394.537 92.9741 397.121 90.3837 398.7 86.6757C401.196 80.8066 401.26 71.8354 393.959 64.2608C390.244 60.4043 382.473 58.773 375.882 60.4644C369.266 62.162 364.625 66.773 362.816 73.4426C361.268 79.1693 363.322 89.1858 368.201 93.0343L367.84 93.4938C362.709 89.4426 360.623 79.3077 362.254 73.2921C364.119 66.4078 368.908 61.6523 375.736 59.8986C382.627 58.1309 390.467 59.7963 394.38 63.8555C401.876 71.6368 401.804 80.8628 399.236 86.9044C397.543 90.8833 394.802 93.556 392.408 93.556C388.583 93.556 386.342 87.5946 385.137 82.5803C385.272 87.3458 384.695 92.948 381.338 93.552C381.149 93.5841 380.96 93.6022 380.774 93.6022" fill="black"/>
<path d="M380.774 93.6022C377.539 93.6022 374.211 88.8026 373.115 84.1274C372.015 79.4241 373.276 76.0632 376.487 75.1281C380.627 73.9262 383.471 79.6287 383.589 79.8735L383.065 80.1284C383.037 80.0742 380.318 74.6245 376.649 75.6879C372.382 76.928 373.302 82.3596 373.685 83.9929C374.782 88.6762 378.242 93.5159 381.234 92.9781C385.448 92.2197 384.657 81.7797 384.163 77.5741C384.017 76.6009 383.944 75.9528 383.928 75.8224C383.912 75.6659 384.025 75.5234 384.179 75.5013C384.338 75.4813 384.483 75.5876 384.509 75.7461C384.529 75.8705 384.629 76.5066 384.746 77.4677C385.414 81.8219 387.601 92.9741 392.408 92.9741C394.537 92.9741 397.121 90.3837 398.7 86.6757C401.196 80.8066 401.26 71.8354 393.959 64.2608C390.244 60.4043 382.473 58.773 375.882 60.4644C369.266 62.162 364.625 66.773 362.816 73.4426C361.268 79.1693 363.322 89.1858 368.201 93.0343L367.84 93.4938C362.709 89.4426 360.623 79.3077 362.254 73.2921C364.119 66.4078 368.908 61.6523 375.736 59.8986C382.627 58.1309 390.467 59.7963 394.38 63.8555C401.876 71.6368 401.804 80.8628 399.236 86.9044C397.543 90.8833 394.802 93.556 392.408 93.556C388.583 93.556 386.342 87.5946 385.137 82.5803C385.272 87.3458 384.695 92.948 381.338 93.552C381.149 93.5841 380.96 93.6022 380.774 93.6022" stroke="#0F0E0C" stroke-width="1.2487"/>
<path d="M348.533 151.941C352.149 133.711 367.401 122.433 367.554 122.321L367.1 121.692C366.942 121.804 351.447 133.266 347.772 151.789L348.533 151.941Z" fill="black"/>
<path d="M348.533 151.941C352.149 133.711 367.401 122.433 367.554 122.321L367.1 121.692C366.942 121.804 351.447 133.265 347.772 151.789L348.533 151.941" stroke="#0F0E0C" stroke-width="0.944882"/>
<path d="M398.619 173.8C399.009 164.195 394.068 137.743 389.643 126.388C388.711 124.005 385.565 121.545 383.212 117.875C381.476 115.161 380.923 111.943 380.408 112.215C376.124 114.473 379.839 121.281 379.839 121.281C378.391 122.383 376.976 123.52 376.976 123.52L368.926 112.778C368.926 112.778 366.579 117.63 367.837 123.85C368.625 127.755 380.835 132.396 380.835 132.396L383.664 167.31L373.633 188.312L390.121 197.556" fill="#A6A6A6"/>
<path d="M336.223 168.802C340.182 162.364 348.177 158.612 355.057 159.314C360.838 158.951 363.847 167.743 360.988 169.095L360.926 171.289C360.926 171.289 358.064 168.186 356.676 168.05C355.423 169.285 355.225 170.637 355.225 170.637C352.906 174.769 349.828 172.258 349.433 175.058C349.486 178.854 347.877 179.085 349.159 180.72C349.373 180.993 349.289 180.858 348.778 181.21L348.192 181.614C348.192 181.614 345.284 179.204 343.11 179.622C341.226 179.984 340.528 181.657 340.41 182.78C340.352 183.335 340.595 183.819 340.595 183.819C340.595 183.819 340.21 183.662 345.348 188.87C348.198 191.759 346.003 195.993 345.071 194.917C344.37 194.108 340.83 188.734 336.766 184.784C331.657 178.308 332.106 172.819 336.223 168.802Z" fill="black"/>
<path d="M359.144 174.375C359.47 174.877 359.941 175.153 360.19 174.991C360.443 174.832 360.381 174.288 360.059 173.786C359.73 173.281 359.262 173.007 359.013 173.167C358.76 173.333 358.819 173.873 359.144 174.375Z" fill="black"/>
<path d="M361.968 181.5C366.151 180.409 366.306 180.394 366.329 180.387L367.513 182.8C363.417 184.354 362.854 182.547 361.968 181.5Z" fill="white"/>
<path d="M453.985 356.993L459.361 372.436L444.082 381.226L437.473 363.377" fill="#0F0E0C"/>
<path d="M503.59 336.182L504.159 336.142C508.544 332.115 513.11 328.044 523.078 327.45L526.243 328.352L500.098 356.023L498.114 355.918L492.565 349.875L494.336 345.867L503.59 336.182Z" fill="#0F0E0C"/>
<path d="M492.112 325.103L503.673 336.19L492.565 349.875L479.959 336.148" fill="#0F0E0C"/>
<path d="M354.314 179.702C354.314 180.675 355.103 181.468 356.077 181.468C357.05 181.468 357.84 180.675 357.84 179.702C357.84 178.726 357.05 177.937 356.077 177.937C355.103 177.937 354.314 178.726 354.314 179.702Z" fill="white"/>
<path d="M307.458 296.528C309.365 295.314 315.641 293.708 319.212 292.854L319.225 292.72L330.135 245.282C345.304 249.435 330.135 245.282 345.304 249.435C345.304 249.435 335.332 284.504 330.661 296.699C329.534 299.637 327.977 302.376 324.62 303.291C322.382 303.899 320.136 304.409 319.209 304.921C317.724 305.743 314.431 308.73 312.877 308.086C311.929 310.101 311.165 311.083 310.337 310.806C309.827 310.63 309.717 309.768 309.835 308.623C308.954 310.446 308.094 311.676 307.335 311.43C306.689 311.225 306.694 309.13 307.033 306.784L306.665 309.173C306.061 310.013 305.476 310.539 305.017 310.365C304.357 310.12 304.469 308.204 304.835 306.098C304.539 306.373 303.001 307.745 302.325 307.235C301.083 306.304 304.862 298.183 307.458 296.528" fill="#A6A6A6"/>
<path d="M222.645 231.84H310.831V231.064H222.645V231.84Z" fill="black" stroke="#0F0E0C" stroke-width="1.2487"/>
<path d="M222.645 247.471H310.831V246.697H222.645V247.471Z" fill="black" stroke="#0F0E0C" stroke-width="1.2487"/>
<path d="M167.098 306.29C168.246 299.891 169.702 293.051 171.112 286.438C175.641 265.156 179.92 245.053 173.857 240.762C166.935 235.857 159.566 246.011 152.446 255.831C147.223 263.037 141.836 270.488 137.381 270.285C135.666 270.205 134.147 269.015 132.739 266.645C122.791 249.888 150.777 202.819 151.063 202.346L150.395 201.946C150.326 202.063 143.187 214.016 137.392 227.915C129.572 246.654 127.783 259.818 132.074 267.043C133.626 269.655 135.351 270.971 137.349 271.062C142.202 271.283 147.484 263.998 153.077 256.288C159.978 246.771 167.111 236.932 173.409 241.394C179.054 245.392 174.824 265.249 170.351 286.278C168.94 292.896 167.485 299.742 166.334 306.152L167.098 306.29Z" fill="black"/>
<path d="M167.098 306.29C168.246 299.891 169.702 293.051 171.112 286.438C175.641 265.156 179.92 245.053 173.857 240.762C166.935 235.857 159.566 246.011 152.446 255.831C147.223 263.037 141.836 270.488 137.381 270.285C135.666 270.205 134.147 269.015 132.739 266.645C122.791 249.888 150.777 202.819 151.063 202.346L150.395 201.946C150.326 202.063 143.187 214.016 137.392 227.915C129.572 246.654 127.783 259.818 132.074 267.043C133.626 269.655 135.351 270.971 137.349 271.062C142.202 271.283 147.484 263.998 153.077 256.288C159.978 246.771 167.111 236.932 173.409 241.394C179.054 245.392 174.824 265.249 170.351 286.278C168.94 292.896 167.485 299.742 166.334 306.152L167.098 306.29" stroke="#0F0E0C" stroke-width="1.2487"/>
<path d="M340.262 368.121C341.864 368.121 343.549 367.907 345.339 367.445C348.576 366.618 351.022 364.649 352.614 361.596C359.357 348.666 348.963 320.568 348.517 319.38L347.791 319.65C347.9 319.941 358.511 348.613 351.925 361.238C350.44 364.088 348.156 365.922 345.147 366.696C332.939 369.826 325.56 360.899 317.745 351.447C311.421 343.798 304.881 335.886 295.272 333.524C284.311 330.831 266.415 336.348 247.466 342.181C229.979 347.569 211.073 353.395 195.428 353.395C185.336 353.395 176.605 350.969 170.481 344.442C166.198 339.873 164.563 331.624 165.49 319.223L164.718 319.167C163.775 331.795 165.474 340.236 169.918 344.973C176.207 351.684 185.138 354.166 195.423 354.169C211.193 354.169 230.152 348.33 247.696 342.923C266.538 337.119 284.335 331.64 295.087 334.279C304.448 336.577 310.906 344.388 317.147 351.943C323.997 360.227 330.522 368.121 340.262 368.121" fill="black"/>
<path d="M340.262 368.121C341.864 368.121 343.549 367.907 345.339 367.445C348.576 366.618 351.022 364.649 352.614 361.596C359.357 348.666 348.963 320.568 348.517 319.38L347.791 319.65C347.9 319.941 358.511 348.613 351.925 361.238C350.44 364.088 348.156 365.922 345.147 366.696C332.939 369.826 325.56 360.899 317.745 351.447C311.421 343.798 304.881 335.886 295.272 333.524C284.311 330.831 266.415 336.348 247.466 342.181C229.979 347.569 211.073 353.395 195.428 353.395C185.336 353.395 176.605 350.969 170.481 344.442C166.198 339.873 164.563 331.624 165.49 319.223L164.718 319.167C163.775 331.795 165.474 340.236 169.918 344.973C176.207 351.684 185.138 354.166 195.423 354.169C211.193 354.169 230.152 348.33 247.696 342.923C266.538 337.119 284.335 331.64 295.087 334.279C304.448 336.577 310.906 344.388 317.147 351.943C323.997 360.227 330.522 368.121 340.262 368.121" stroke="#0F0E0C" stroke-width="1.2487"/>
<path d="M180.432 199.271C180.378 200.499 180.192 201.734 179.871 202.975C179.551 204.203 179.07 205.331 178.43 206.359C177.789 207.386 176.955 208.214 175.927 208.841C174.913 209.455 173.685 209.762 172.243 209.762C171.322 209.762 170.515 209.602 169.821 209.282C169.14 208.948 168.579 208.474 168.139 207.86C167.712 207.246 167.411 206.506 167.238 205.638C167.078 204.77 167.051 203.803 167.158 202.735L168.179 191.643H171.122L170.101 202.735C170.021 203.709 170.041 204.503 170.161 205.117C170.294 205.731 170.495 206.205 170.762 206.539C171.029 206.859 171.329 207.08 171.663 207.2C172.01 207.32 172.343 207.38 172.664 207.38C173.464 207.38 174.179 207.173 174.806 206.759C175.433 206.332 175.96 205.751 176.388 205.017C176.828 204.27 177.168 203.409 177.409 202.435C177.649 201.447 177.796 200.393 177.849 199.271C177.942 197.283 177.849 195.454 177.569 193.786C177.302 192.117 176.841 190.636 176.187 189.341C175.547 188.046 174.706 186.952 173.665 186.058C172.624 185.163 171.382 184.483 169.941 184.015C168.499 183.548 166.851 183.315 164.996 183.315C163.314 183.315 161.759 183.575 160.331 184.095C158.916 184.603 157.641 185.337 156.507 186.298C155.386 187.259 154.418 188.413 153.604 189.761C152.803 191.109 152.169 192.631 151.702 194.326C151.248 196.008 150.981 197.823 150.901 199.772C150.807 201.774 150.914 203.616 151.221 205.298C151.528 206.966 152.022 208.454 152.703 209.762C153.397 211.084 154.271 212.198 155.326 213.106C156.38 214.027 157.601 214.721 158.989 215.188C160.377 215.668 161.926 215.909 163.634 215.909C164.809 215.909 165.997 215.769 167.198 215.488C168.413 215.208 169.427 214.828 170.241 214.347L171.002 216.629C170.068 217.23 168.9 217.677 167.498 217.971C166.11 218.265 164.795 218.411 163.554 218.411C161.525 218.411 159.67 218.131 157.988 217.57C156.32 217.023 154.838 216.216 153.544 215.148C152.262 214.094 151.195 212.805 150.34 211.284C149.486 209.776 148.859 208.054 148.458 206.119C148.058 204.183 147.904 202.068 147.998 199.772C148.091 197.583 148.418 195.521 148.979 193.585C149.553 191.65 150.334 189.895 151.321 188.32C152.309 186.745 153.484 185.39 154.845 184.256C156.22 183.108 157.761 182.227 159.47 181.613C161.192 180.999 163.06 180.692 165.076 180.692C167.131 180.692 168.993 180.972 170.662 181.533C172.33 182.093 173.791 182.901 175.046 183.955C176.314 185.01 177.362 186.298 178.189 187.819C179.017 189.341 179.618 191.063 179.991 192.985C180.378 194.907 180.525 197.002 180.432 199.271ZM159.87 200.973C159.777 201.907 159.777 202.742 159.87 203.476C159.964 204.21 160.144 204.83 160.411 205.338C160.678 205.845 161.025 206.232 161.452 206.499C161.892 206.752 162.406 206.879 162.994 206.879C163.381 206.879 163.788 206.786 164.215 206.599C164.642 206.399 165.062 206.092 165.476 205.678C165.89 205.264 166.277 204.724 166.637 204.056C166.998 203.389 167.298 202.588 167.538 201.654L168.86 203.095C168.553 204.19 168.152 205.151 167.658 205.978C167.178 206.806 166.637 207.5 166.037 208.061C165.436 208.621 164.795 209.048 164.115 209.342C163.447 209.622 162.767 209.762 162.073 209.762C161.098 209.762 160.244 209.555 159.51 209.142C158.776 208.715 158.182 208.114 157.728 207.34C157.274 206.566 156.954 205.645 156.767 204.577C156.594 203.496 156.567 202.295 156.687 200.973C156.807 199.572 157.054 198.277 157.428 197.089C157.801 195.901 158.262 194.84 158.809 193.906C159.37 192.971 159.997 192.177 160.691 191.523C161.399 190.869 162.146 190.375 162.933 190.042C163.721 189.695 164.528 189.521 165.356 189.521C166.798 189.521 167.932 189.735 168.76 190.162C169.587 190.576 170.375 191.069 171.122 191.643L169.42 193.625C169.033 193.252 168.526 192.905 167.899 192.584C167.271 192.264 166.531 192.104 165.676 192.104C164.942 192.104 164.255 192.291 163.614 192.664C162.974 193.038 162.393 193.599 161.872 194.346C161.365 195.094 160.938 196.021 160.591 197.129C160.244 198.224 160.004 199.505 159.87 200.973Z" fill="white"/>
<path d="M71.2471 390.643L613.92 390.011" stroke="#0F0E0C" stroke-width="3.01444"/>
<path d="M457.012 11.0222C456.767 10.6595 456.351 10.3867 455.772 10.2074C452.693 9.24827 445.366 11.2474 439.771 15.6482C438.275 16.8253 436.66 18.7787 435.044 21.1896C437.385 20.3338 439.661 19.5288 441.81 18.7646C449.994 15.8684 457.727 13.1289 457.202 11.4222C457.157 11.279 457.096 11.1461 457.012 11.0222L457.012 11.0222ZM474.144 35.2219C474.099 35.1556 474.042 35.1005 473.981 35.0578C472.234 33.8605 468.731 36.5307 464.836 42.016C461.268 47.0455 457.674 54.067 455.736 60.2021C462.586 53.9529 470.369 44.8129 473.294 38.9612C474.218 37.1104 474.517 35.7748 474.144 35.2219V35.2219ZM478.464 46.1184C478.379 45.9923 478.282 45.9544 478.237 45.9399C476.336 45.2453 469.906 53.6266 465.115 64.4028C463.952 67.007 463.055 69.3936 462.417 71.5114C469.874 66.2044 478.966 50.9671 478.628 46.6999C478.606 46.4054 478.538 46.229 478.464 46.1184L478.464 46.1184ZM480.51 70.5485C477.832 70.5485 474.603 75.3635 472.726 78.7004C470.686 82.3418 469.381 87.2829 472.424 89.2192C475.888 91.4158 479.564 90.3647 482.254 86.4071C485.528 81.5954 486.144 74.0109 482.072 71.066C481.584 70.7159 481.061 70.5533 480.51 70.5485H480.51ZM449.31 49.4842C449.237 49.3757 449.152 49.269 449.052 49.1652C448.004 48.0761 446.969 47.7375 445.977 48.1587C443.861 49.056 442.032 53.3112 441.616 57.8169C443.985 56.9165 446.361 55.4485 447.972 53.7748C448.931 52.7765 450.305 50.957 449.31 49.4842V49.4842ZM433.841 21.6313C435.798 18.6004 437.665 16.319 439.292 15.0405C445.161 10.4197 452.674 8.42756 456.006 9.46656C457.025 9.7831 457.694 10.3816 457.943 11.1927C458.658 13.5088 453.293 15.5227 442.068 19.4987C439.624 20.3654 437.013 21.2901 434.334 22.2804C428.095 32.0787 422.027 48.0801 422.544 52.5202C422.599 53.0076 422.736 53.3243 422.928 53.4134C423.11 53.5004 423.274 53.5053 423.451 53.4339C424.497 53.0116 425.559 50.2532 426.68 47.3353C428.386 42.8929 430.323 37.8629 433.521 36.7348C434.745 36.3047 436.067 36.4914 437.441 37.2936C440.471 39.0583 438.377 42.851 436.16 46.8657C433.855 51.046 431.464 55.3712 434.3 57.8788C435.633 59.0594 438.168 58.9619 440.821 58.0991C441.186 53.5146 443.007 48.5755 445.675 47.4447C446.581 47.0588 448.002 46.9532 449.612 48.6296C451.004 50.083 450.61 52.1519 448.53 54.3132C446.868 56.0367 444.227 57.7129 441.555 58.689C441.526 59.2717 441.52 59.8528 441.538 60.4315C441.672 63.9383 442.817 66.3088 444.678 66.9304C446.411 67.512 450.268 65.0217 454.657 61.1641C456.474 54.6788 460.297 47.0749 464.203 41.5689C468.495 35.5165 472.22 32.9123 474.418 34.42C475.426 35.1089 475.286 36.71 473.99 39.3077C470.995 45.2901 462.592 55.2673 455.291 61.6828C453.879 66.7874 453.779 71.0698 456.055 72.7288C457.31 73.6465 459.001 73.5259 461.082 72.3661C461.2 72.2979 461.324 72.2284 461.447 72.1522C462.291 69.0673 463.538 66.0295 464.399 64.0858C468.162 55.64 475.346 44.0544 478.505 45.2136C478.871 45.3461 479.325 45.7031 479.402 46.6367C479.77 51.3153 470.022 67.6749 462.091 72.6672C460.783 77.6017 461.06 80.9056 463.004 81.9278C464.944 82.9471 468.119 79.6445 471.19 76.4543C474.313 73.2068 477.519 69.8737 480.341 69.7626C483.584 67.9607 487.168 67.4224 490.5 69.0476C498.34 72.8697 498.514 88.2559 495.845 101.267L494.985 101.663C497.878 88.6293 497.8 73.4479 490.157 69.7424C487.388 68.3914 484.415 68.6655 481.636 69.9613C481.938 70.0697 482.235 70.2271 482.522 70.4385C487.078 73.7306 486.374 81.7249 482.895 86.8428C479.938 91.1928 475.866 92.3248 472.008 89.8693C469.123 88.0423 469.142 83.5079 472.051 78.3239C473.49 75.7557 481.597 68.5542 477.708 71.5498C475.817 72.7618 473.764 74.8977 471.75 76.9912C468.329 80.5462 465.1 83.9076 462.642 82.6168C460.06 81.258 460.187 77.2884 461.179 73.196C458.933 74.3701 457.055 74.4237 455.593 73.3526C455.211 73.073 454.884 72.733 454.614 72.3327C453.216 70.265 453.292 66.6969 454.296 62.5415C450.086 66.1013 446.361 68.3154 444.429 67.6647C442.217 66.9231 440.915 64.3626 440.765 60.4606C440.744 59.9722 440.744 59.4667 440.766 58.9558C438.04 59.8102 435.378 59.8715 433.78 58.4571C430.484 55.5393 433.139 50.7329 435.479 46.4902C437.596 42.6559 439.424 39.3481 437.047 37.9636C435.862 37.2728 434.791 37.1098 433.775 37.4667C430.916 38.4722 428.969 43.5385 427.402 47.61C426.118 50.9597 425.102 53.6038 423.741 54.1553C423.361 54.3087 422.979 54.2924 422.597 54.1185C422.139 53.9029 421.862 53.3976 421.77 52.6091C421.378 49.206 424.327 40.6911 427.425 33.7599C429.3 29.5578 431.261 25.7992 433.162 22.713" fill="#0F0E0C"/>
<path d="M433.841 21.6313C435.798 18.6004 437.665 16.319 439.292 15.0405C445.161 10.4197 452.674 8.42756 456.006 9.46656C457.025 9.7831 457.694 10.3816 457.943 11.1927C458.658 13.5088 453.293 15.5227 442.068 19.4987C439.624 20.3654 437.013 21.2901 434.334 22.2804C428.095 32.0787 422.027 48.0801 422.544 52.5202C422.599 53.0076 422.736 53.3243 422.928 53.4134C423.11 53.5004 423.274 53.5053 423.451 53.4339C424.497 53.0116 425.559 50.2532 426.68 47.3353C428.386 42.8929 430.323 37.8629 433.521 36.7348C434.745 36.3047 436.067 36.4914 437.441 37.2936C440.471 39.0583 438.377 42.851 436.16 46.8657C433.855 51.046 431.464 55.3712 434.3 57.8788C435.633 59.0594 438.168 58.9619 440.821 58.0991C441.186 53.5146 443.007 48.5755 445.675 47.4447C446.581 47.0588 448.002 46.9532 449.612 48.6296C451.004 50.083 450.61 52.1519 448.53 54.3132C446.868 56.0367 444.227 57.7129 441.555 58.689C441.526 59.2717 441.52 59.8528 441.538 60.4315C441.672 63.9383 442.817 66.3088 444.678 66.9304C446.411 67.512 450.268 65.0217 454.657 61.1641C456.474 54.6788 460.297 47.0749 464.203 41.5689C468.495 35.5165 472.22 32.9123 474.418 34.42C475.426 35.1089 475.286 36.71 473.99 39.3077C470.995 45.2901 462.592 55.2673 455.291 61.6828C453.879 66.7874 453.779 71.0698 456.055 72.7288C457.31 73.6465 459.001 73.5259 461.082 72.3661C461.2 72.2979 461.324 72.2284 461.447 72.1522C462.291 69.0673 463.538 66.0295 464.399 64.0858C468.162 55.64 475.346 44.0544 478.505 45.2136C478.871 45.3461 479.325 45.7031 479.402 46.6367C479.77 51.3153 470.022 67.6749 462.091 72.6672C460.783 77.6017 461.06 80.9056 463.004 81.9278C464.944 82.9471 468.119 79.6445 471.19 76.4543C474.313 73.2068 477.519 69.8737 480.341 69.7626C483.584 67.9607 487.168 67.4224 490.5 69.0476C498.34 72.8697 498.514 88.2559 495.845 101.267L494.985 101.663C497.878 88.6293 497.8 73.4479 490.157 69.7424C487.388 68.3914 484.415 68.6655 481.636 69.9613C481.938 70.0697 482.235 70.2271 482.522 70.4385C487.078 73.7306 486.374 81.7249 482.895 86.8428C479.938 91.1928 475.866 92.3248 472.008 89.8693C469.123 88.0423 469.142 83.5079 472.051 78.3239C473.49 75.7557 481.597 68.5542 477.708 71.5498C475.817 72.7618 473.764 74.8977 471.75 76.9912C468.329 80.5462 465.1 83.9076 462.642 82.6168C460.06 81.258 460.187 77.2884 461.179 73.196C458.933 74.3701 457.055 74.4237 455.593 73.3526C455.211 73.073 454.884 72.733 454.614 72.3327C453.216 70.265 453.292 66.697 454.296 62.5415C450.086 66.1013 446.361 68.3154 444.429 67.6647C442.217 66.9231 440.915 64.3626 440.765 60.4606C440.744 59.9722 440.744 59.4667 440.766 58.9558C438.04 59.8102 435.378 59.8715 433.78 58.4571C430.484 55.5393 433.139 50.7329 435.479 46.4902C437.596 42.6559 439.424 39.3481 437.047 37.9636C435.862 37.2728 434.791 37.1098 433.775 37.4667C430.916 38.4722 428.969 43.5385 427.402 47.61C426.118 50.9597 425.102 53.6038 423.741 54.1553C423.361 54.3087 422.979 54.2924 422.597 54.1185C422.139 53.9029 421.862 53.3976 421.77 52.6091C421.378 49.206 424.327 40.6911 427.425 33.7599C429.3 29.5578 431.261 25.7992 433.162 22.713M457.012 11.0222C456.767 10.6595 456.351 10.3867 455.772 10.2074C452.693 9.24827 445.366 11.2474 439.771 15.6482C438.275 16.8253 436.66 18.7787 435.044 21.1896C437.385 20.3338 439.661 19.5288 441.81 18.7646C449.994 15.8684 457.727 13.1289 457.202 11.4222C457.157 11.279 457.096 11.1461 457.012 11.0222L457.012 11.0222ZM474.144 35.2219C474.099 35.1556 474.042 35.1005 473.981 35.0578C472.234 33.8605 468.731 36.5307 464.836 42.016C461.268 47.0455 457.674 54.067 455.736 60.2021C462.586 53.9529 470.369 44.8129 473.294 38.9612C474.218 37.1104 474.517 35.7748 474.144 35.2219V35.2219ZM478.464 46.1184C478.379 45.9923 478.282 45.9544 478.237 45.9399C476.336 45.2453 469.906 53.6266 465.115 64.4028C463.952 67.007 463.055 69.3936 462.417 71.5114C469.874 66.2044 478.966 50.9671 478.628 46.6999C478.606 46.4054 478.538 46.229 478.464 46.1184L478.464 46.1184ZM480.51 70.5485C477.832 70.5485 474.603 75.3635 472.726 78.7004C470.686 82.3418 469.381 87.2829 472.424 89.2192C475.888 91.4158 479.564 90.3647 482.254 86.4071C485.528 81.5954 486.144 74.0109 482.072 71.066C481.584 70.7159 481.061 70.5533 480.51 70.5485H480.51ZM449.31 49.4842C449.237 49.3757 449.152 49.269 449.052 49.1652C448.004 48.0761 446.969 47.7375 445.977 48.1587C443.861 49.056 442.032 53.3112 441.616 57.8169C443.985 56.9165 446.361 55.4485 447.972 53.7748C448.931 52.7765 450.305 50.957 449.31 49.4842V49.4842Z" stroke="#0F0E0C" stroke-width="0.566929" stroke-linecap="round" stroke-linejoin="round"/>
<path d="M437.746 20.5769C437.746 20.5769 425.922 24.2427 410.365 35.319C394.809 46.3952 390.903 49.3932 390.903 49.3932L381.035 55.4529C381.035 55.4529 373.778 59.3842 358.545 55.5419C341.83 51.3259 323.455 46.0519 303.634 55.3639" stroke="#0F0E0C" stroke-width="1.70079"/>
<path d="M408.824 105.071C408.824 105.071 434.298 96.616 466.293 115.622C498.287 134.628 500.68 158.542 500.68 158.542C500.68 158.542 505.858 187.927 485.835 187.749C464.616 187.56 468.434 159.675 468.434 159.675C468.434 159.675 472.616 141.421 484.053 121.789C495.968 101.337 495.713 100.555 495.713 100.555" stroke="#0F0E0C" stroke-width="1.70079"/>
<path d="M459.242 372.317L459.788 372.481C465.316 370.266 471.029 368.072 480.561 371.041L483.202 373.004L448.95 389.64L447.132 388.84L444.082 381.226L447.157 378.103L459.242 372.318" fill="#0F0E0C"/>
</svg>
